<svg width="36" height="34" viewBox="0 0 36 34" fill="none" xmlns="http://www.w3.org/2000/svg">
<path d="M29.8113 33.1177H6.18837C5.80749 33.1177 5.49833 32.8093 5.49833 32.4276V19.5647L0.688346 19.555C0.40958 19.5543 0.158402 19.3859 0.0521248 19.1286C-0.0541526 18.8706 0.00518278 18.5746 0.201864 18.3772L17.4955 1.08361C17.6527 0.926997 17.8777 0.857305 18.0936 0.890411C18.2986 0.923516 18.4766 1.04703 18.5801 1.22503L22.6063 5.25118V3.96575C22.6063 3.58487 22.9147 3.27571 23.2963 3.27571H27.35C27.7316 3.27571 28.0401 3.58487 28.0401 3.96575V10.685L35.7978 18.4434C35.9952 18.6408 36.0545 18.9381 35.9476 19.1962C35.8406 19.4536 35.5887 19.6212 35.31 19.6212C35.3093 19.6212 35.3093 19.6212 35.3086 19.6212L30.5007 19.6115V32.4276C30.5014 32.8093 30.1929 33.1177 29.8113 33.1177ZM6.87841 31.7377H29.1214V18.9202C29.1214 18.7367 29.1939 18.5607 29.3242 18.4317C29.4539 18.3027 29.6286 18.2302 29.8114 18.2302C29.8121 18.2302 29.8121 18.2302 29.8128 18.2302L33.6415 18.2377L26.863 11.4585C26.7333 11.3288 26.6608 11.1535 26.6608 10.9706V4.65579H23.987V6.91758C23.987 7.19634 23.8194 7.4482 23.5613 7.55516C23.304 7.66279 23.0073 7.60346 22.8092 7.40542L17.9675 2.56369L2.35271 18.1785L6.18981 18.186C6.5707 18.1867 6.87841 18.4952 6.87841 18.8761C6.87841 18.876 6.87841 31.7377 6.87841 31.7377Z" fill="#FAF5FF"/>
</svg>
