<svg width="44" height="44" viewBox="0 0 44 44" fill="none" xmlns="http://www.w3.org/2000/svg">
<path d="M43.7314 41.139L30.9498 28.3574C33.3741 25.3644 34.8334 21.5594 34.8334 17.4167C34.8334 7.8132 27.0202 0 17.4166 0C7.81311 0 0 7.8132 0 17.4167C0 27.0203 7.8132 34.8335 17.4167 34.8335C21.5594 34.8335 25.3644 33.3741 28.3574 30.9498L41.139 43.7315C41.4972 44.0895 42.0774 44.0895 42.4355 43.7315L43.7315 42.4354C44.0895 42.0774 44.0895 41.497 43.7314 41.139ZM17.4167 31.1668C9.83454 31.1668 3.6667 24.9989 3.6667 17.4167C3.6667 9.83454 9.83454 3.6667 17.4167 3.6667C24.9989 3.6667 31.1668 9.83454 31.1668 17.4167C31.1668 24.9989 24.9989 31.1668 17.4167 31.1668Z" fill="white"/>
</svg>
